<?xml version="1.0" encoding="utf-8"?>
<!-- Svg Vector Icons : http://www.onlinewebfonts.com/icon -->
<!DOCTYPE svg PUBLIC "-//W3C//DTD SVG 1.1//EN" "http://www.w3.org/Graphics/SVG/1.1/DTD/svg11.dtd">
<svg version="1.1" xmlns="http://www.w3.org/2000/svg" xmlns:xlink="http://www.w3.org/1999/xlink" x="0px" y="0px" viewBox="0 0 256 256" enable-background="new 0 0 256 256" xml:space="preserve">
<metadata> Svg Vector Icons : http://www.onlinewebfonts.com/icon </metadata>
<g><g><path fill="#000000" d="M86.6,46.2l-53-26v64c0,0-23.6,17.8-23.6,58.3c0,51.3,29.4,93.2,117.6,93.2C216,235.7,246,196,246,142.6c0-40.9-23.6-58.3-23.6-58.3v-64l-53.1,26.4c0,0-17.2-10.6-41.4-10.6C105.3,36.1,86.6,46.2,86.6,46.2z M151.6,130.9c0-12.8,10.6-23.3,23.6-23.3c13,0,23.6,10.5,23.6,23.3c0,12.9-10.6,23.3-23.6,23.3C162.2,154.2,151.6,143.8,151.6,130.9z M57.2,130.9c0-12.8,10.5-23.3,23.6-23.3c13,0,23.6,10.5,23.6,23.3c0,12.9-10.6,23.3-23.6,23.3C67.8,154.2,57.2,143.8,57.2,130.9z M76.8,193.8c22.4,17.7,46-2.4,46-12.7c-5.7-2.3-12.5-3.6-12.5-9.3c0-3.3,8-8,17.7-8c9.8,0,17.7,4.7,17.7,8c0,6.2-6.1,7-11.8,9.1c0.1,10.3,15.7,32,43.9,13.2c-24.2,29.5-49.2-1-49.3-9.1C128.5,193.5,99.1,223.3,76.8,193.8z"/></g></g>
</svg>